# Tiled2Unity generated file. Do not modify by hand.
# Wavefront file for 'Level1Alt_mesh_0009.obj'

# Vertices (Count = 24)
v -15800 -1800 0
v -15900 -1800 0
v -15900 -1700 0
v -15800 -1700 0
v -15800 -1900 0
v -15900 -1900 0
v -15900 -1800 0
v -15800 -1800 0
v -15800 -2000 0
v -15900 -2000 0
v -15900 -1900 0
v -15800 -1900 0
v -15800 -2100 0
v -15900 -2100 0
v -15900 -2000 0
v -15800 -2000 0
v -15800 -2200 0
v -15900 -2200 0
v -15900 -2100 0
v -15800 -2100 0
v -15800 -2300 0
v -15900 -2300 0
v -15900 -2200 0
v -15800 -2200 0

# Texture cooridinates (Count = 4)
vt 0 0
vt 1 0
vt 1 1
vt 0 1

# Normal
vn 0 0 -1

# Mesh description
g Level1Alt_mesh_0009

# Faces
f 1/1/1 2/2/1 3/3/1 4/4/1
f 5/1/1 6/2/1 7/3/1 8/4/1
f 9/1/1 10/2/1 11/3/1 12/4/1
f 13/1/1 14/2/1 15/3/1 16/4/1
f 17/1/1 18/2/1 19/3/1 20/4/1
f 21/1/1 22/2/1 23/3/1 24/4/1

