# Tiled2Unity generated file. Do not modify by hand.
# Wavefront file for 'Level1Map_mesh_0007.obj'

# Vertices (Count = 12)
v -13800 -2000 0
v -13900 -2000 0
v -13900 -1900 0
v -13800 -1900 0
v -13800 -2100 0
v -13900 -2100 0
v -13900 -2000 0
v -13800 -2000 0
v -15500 -2700 0
v -15600 -2700 0
v -15600 -2600 0
v -15500 -2600 0

# Texture cooridinates (Count = 4)
vt 0 0
vt 1 0
vt 1 1
vt 0 1

# Normal
vn 0 0 -1

# Mesh description
g Level1Map_mesh_0007

# Faces
f 1/1/1 2/2/1 3/3/1 4/4/1
f 5/1/1 6/2/1 7/3/1 8/4/1
f 9/1/1 10/2/1 11/3/1 12/4/1

