# Tiled2Unity generated file. Do not modify by hand.
# Wavefront file for 'Level2_mesh_0009.obj'

# Vertices (Count = 12)
v -15800 -1800 0
v -15900 -1800 0
v -15900 -1700 0
v -15800 -1700 0
v -15100 -1900 0
v -15200 -1900 0
v -15200 -1800 0
v -15100 -1800 0
v -13100 -2500 0
v -13200 -2500 0
v -13200 -2400 0
v -13100 -2400 0

# Texture cooridinates (Count = 4)
vt 0 0
vt 1 0
vt 1 1
vt 0 1

# Normal
vn 0 0 -1

# Mesh description
g Level2_mesh_0009

# Faces
f 1/1/1 2/2/1 3/3/1 4/4/1
f 5/1/1 6/2/1 7/3/1 8/4/1
f 9/1/1 10/2/1 11/3/1 12/4/1

