# Tiled2Unity generated file. Do not modify by hand.
# Wavefront file for 'Level2_mesh_0006.obj'

# Vertices (Count = 24)
v -16200 -2000 0
v -16300 -2000 0
v -16300 -1900 0
v -16200 -1900 0
v -16100 -2100 0
v -16200 -2100 0
v -16200 -2000 0
v -16100 -2000 0
v -16000 -2300 0
v -16100 -2300 0
v -16100 -2200 0
v -16000 -2200 0
v -16000 -2500 0
v -16100 -2500 0
v -16100 -2400 0
v -16000 -2400 0
v -13000 -3800 0
v -13100 -3800 0
v -13100 -3700 0
v -13000 -3700 0
v -13500 -3800 0
v -13600 -3800 0
v -13600 -3700 0
v -13500 -3700 0

# Texture cooridinates (Count = 4)
vt 0 0
vt 1 0
vt 1 1
vt 0 1

# Normal
vn 0 0 -1

# Mesh description
g Level2_mesh_0006

# Faces
f 1/1/1 2/2/1 3/3/1 4/4/1
f 5/1/1 6/2/1 7/3/1 8/4/1
f 9/1/1 10/2/1 11/3/1 12/4/1
f 13/1/1 14/2/1 15/3/1 16/4/1
f 17/1/1 18/2/1 19/3/1 20/4/1
f 21/1/1 22/2/1 23/3/1 24/4/1

